<svg id="Grupo_1709" data-name="Grupo 1709" xmlns="http://www.w3.org/2000/svg" width="24" height="24" viewBox="0 0 24 24">
  <circle id="Elipse_110" data-name="Elipse 110" cx="12" cy="12" r="12" fill="#efeb5c"/>
  <path id="Icon_metro-qrcode" data-name="Icon metro-qrcode" d="M6.337,2.681H3.324V5.694H6.337Zm.753-.753V6.447H2.571V1.928ZM4.077,3.434H5.583V4.941H4.077Zm9.791-.753H10.856V5.694h3.013Zm.753-.753V6.447H10.1V1.928ZM11.609,3.434h1.506V4.941H11.609ZM6.337,10.213H3.324v3.013H6.337ZM7.09,9.46v4.519H2.571V9.46ZM4.077,10.966H5.583v1.506H4.077ZM7.843,1.928H8.6v.753H7.843Zm.753.753h.753v.753H8.6Zm-.753.753H8.6v.753H7.843Zm.753.753h.753v.753H8.6Zm-.753.753H8.6v.753H7.843Zm.753.753h.753v.753H8.6Zm-.753.753H8.6V7.2H7.843Zm0,1.506H8.6v.753H7.843Zm.753.753h.753V9.46H8.6Zm-.753.753H8.6v.753H7.843Zm.753.753h.753v.753H8.6Zm-.753.753H8.6v.753H7.843Zm.753.753h.753v.753H8.6Zm-.753.753H8.6v.753H7.843Zm.753.753h.753v.753H8.6Zm5.272-5.272h.753v.753h-.753Zm-10.545,0h.753v.753H3.324ZM4.077,7.2H4.83v.753H4.077Zm-1.506,0h.753v.753H2.571Zm3.013,0h.753v.753H5.583Zm.753.753H7.09v.753H6.337ZM7.09,7.2h.753v.753H7.09Zm2.26.753H10.1v.753H9.349ZM10.1,7.2h.753v.753H10.1Zm.753.753h.753v.753h-.753Zm.753-.753h.753v.753h-.753Zm.753.753h.753v.753h-.753Zm.753-.753h.753v.753h-.753Zm.753,2.26h.753v.753h-.753Zm-4.519,0H10.1v.753H9.349Zm.753-.753h.753V9.46H10.1Zm.753.753h.753v.753h-.753Zm1.506,0h.753v.753h-.753Zm.753-.753h.753V9.46h-.753Zm.753,2.26h.753v.753h-.753Zm-4.519,0H10.1v.753H9.349Zm.753-.753h.753v.753H10.1Zm1.506,0h.753v.753h-.753Zm.753.753h.753v.753h-.753Zm.753-.753h.753v.753h-.753Zm.753,2.26h.753v.753h-.753ZM10.1,11.719h.753v.753H10.1Zm.753.753h.753v.753h-.753Zm.753-.753h.753v.753h-.753Zm.753.753h.753v.753h-.753Zm-2.26.753h.753v.753H10.1Zm1.506,0h.753v.753h-.753Zm1.506,0h.753v.753h-.753Z" transform="translate(3.429 4.072)" fill="#1b397f"/>
</svg>
